<?xml version="1.0" encoding="utf-8"?>
<svg id="master-artboard" viewBox="0 0 1400 980" version="1.1" xmlns="http://www.w3.org/2000/svg" x="0px" y="0px" width="1400px" height="980px" style="enable-background:new 0 0 1400 980;">


<path class="st1" d="M1253.4514,524.866h-69.6268c-29.3383-75.1594-75.5366-141.875-133.9475-195.5033h44.7008&#10;&#9;c17.8047,0,32.2384-14.4336,32.2384-32.2384v-0.0001c0-17.8048-14.4337-32.2385-32.2384-32.2385H963.2686&#10;&#9;c-78.2873-46.598-169.7523-73.3681-267.4724-73.3681h-0.001c-120.8277,0-232.0924,40.9259-320.7049,109.6617h-65.3594&#10;&#9;c-17.8048,0-32.2385,14.4337-32.2385,32.2384v0.0001c0,16.5536,12.4788,30.1858,28.5409,32.021&#10;&#9;c-66.5239,74.0774-112.2416,167.2179-127.9407,270.2326h-49.7973c-17.8048,0-32.2385,14.4336-32.2385,32.2384v0.0001&#10;&#9;c0,17.8049,14.4336,32.2385,32.2385,32.2385h44.013c-0.1416,5.0089-0.2204,10.0334-0.2204,15.0764v45.2352h1047.4155v-45.2352&#10;&#9;c0-43.3966-5.2845-85.5579-15.2343-125.8818h49.1823c17.8049,0,32.2386-14.4337,32.2386-32.2385v-0.0001&#10;&#9;C1285.6901,539.2997,1271.2563,524.866,1253.4514,524.866z" style="fill: rgb(127, 138, 154);"/>
<g>
	<path class="st2" d="M363.6222,434.1119l7.3675,134.9962l74.8245-6.6577h568.2681c15.1464,0,27.425-12.2786,27.425-27.4249&#10;&#9;&#9;V434.1119H363.6222z" style="fill: rgb(30, 38, 33);"/>
	<g>
		<path d="M 565.597984 538.999207 A 77.766197 77.766197 0 0 1 487.831787 616.765404 A 77.766197 77.766197 0 0 1 410.06559 538.999207 A 77.766197 77.766197 0 0 1 487.831787 461.233009 A 77.766197 77.766197 0 0 1 565.597984 538.999207 Z" class="st2" style="fill: rgb(30, 38, 33);"/>
		<path d="M 1038.671227 538.999207 A 77.766197 77.766197 0 0 1 960.905029 616.765404 A 77.766197 77.766197 0 0 1 883.138832 538.999207 A 77.766197 77.766197 0 0 1 960.905029 461.233009 A 77.766197 77.766197 0 0 1 1038.671227 538.999207 Z" class="st2" style="fill: rgb(30, 38, 33);"/>
	</g>
	<path class="st3" d="M1067.8878,382.1753c13.4258-24.3784-33.6514-10.9526-61.3843-18.0188&#10;&#9;&#9;c-27.733-7.0662-87.2575-79.1416-263.1253-79.1416c-129.8715,0-149.6983,76.9587-216.1144,93.9806&#10;&#9;&#9;c-74.4419,19.0788-148.8838,33.2112-181.6341,60.7594c-33.2783,27.9925-45.303,108.2965-18.9229,122.6955&#10;&#9;&#9;c8.3553,4.5606,25.1854,6.3459,44.2829,6.6577c7.143,0.1166,12.7486-6.319,11.3741-13.3294&#10;&#9;&#9;c-1.2541-6.3962-1.806-13.0438-1.5695-19.8607c1.5964-46.011,39.6226-83.1643,85.6577-83.7463&#10;&#9;&#9;c48.4722-0.6128,87.9579,38.4962,87.9579,86.8275c0,8.5467-1.2553,16.7961-3.5561,24.5974h316.8801&#10;&#9;&#9;c-2.3008-7.8012-3.5562-16.0507-3.5562-24.5974c0-47.9574,38.8772-86.8346,86.8345-86.8346&#10;&#9;&#9;c47.9574,0,86.8345,38.8772,86.8345,86.8346c0,3.7817-0.2684,7.4987-0.7373,11.1528l34.9082-12.7903&#10;&#9;&#9;c9.4033-3.4454,15.6555-12.3948,15.6555-22.4095V461.233C1087.6732,461.233,1055.036,414.6798,1067.8878,382.1753z" style="fill: rgb(241, 93, 93);"/>
	<path class="st4" d="M827.3888,504.2819H598.5071c-9.1326,0-16.5361-7.4034-16.5361-16.536v0&#10;&#9;&#9;c0-9.1326,7.4034-16.5361,16.5361-16.5361h228.8817c9.1326,0,16.5361,7.4034,16.5361,16.5361v0&#10;&#9;&#9;C843.9249,496.8784,836.5214,504.2819,827.3888,504.2819z" style="fill: rgb(229, 87, 87);"/>
	<g>
		<path class="st5" d="M315.6698,547.7776c2.3558,6.7484,5.9917,11.9189,11.0371,14.6728&#10;&#9;&#9;&#9;c8.3553,4.5606,25.1853,6.3459,44.2829,6.6577c7.143,0.1166,12.7486-6.319,11.3741-13.3295&#10;&#9;&#9;&#9;c-0.5442-2.7754-0.9293-5.6061-1.202-8.4694C355.7683,547.0811,332.262,547.1516,315.6698,547.7776z" style="fill: rgb(211, 72, 72);"/>
		<path class="st5" d="M550.8538,563.5966h316.8801c-1.2401-4.2044-2.1646-8.5428-2.7645-12.9841c-83.1346,0-248.8364,0-311.3511,0&#10;&#9;&#9;&#9;C553.0184,555.0537,552.0938,559.3922,550.8538,563.5966z" style="fill: rgb(211, 72, 72);"/>
		<path class="st5" d="M1072.0177,537.3617c9.4033-3.4454,15.6555-12.3948,15.6555-22.4095v-53.3371&#10;&#9;&#9;&#9;c-13.0348,9.0265-35.458,22.5424-60.1294,36.3402c6.569,12.2229,10.303,26.196,10.303,41.0439&#10;&#9;&#9;&#9;c0,3.7817-0.2684,7.4987-0.7373,11.1528L1072.0177,537.3617z" style="fill: rgb(211, 72, 72);"/>
	</g>
	<g>
		<path d="M 545.341606 538.999207 A 77.766197 77.766197 0 0 1 467.575409 616.765404 A 77.766197 77.766197 0 0 1 389.809212 538.999207 A 77.766197 77.766197 0 0 1 467.575409 461.233009 A 77.766197 77.766197 0 0 1 545.341606 538.999207 Z" class="st6" style="fill: rgb(56, 69, 68);"/>
		<path class="st7" d="M401.1116,520.5294c-0.3678,0-0.7418-0.0579-1.1103-0.1808c-1.8528-0.6127-2.8575-2.6111-2.2448-4.4633&#10;&#9;&#9;&#9;c5.7006-17.228,17.542-31.6972,33.343-40.7411c1.692-0.9688,3.8512-0.3837,4.8214,1.3111&#10;&#9;&#9;&#9;c0.9688,1.6934,0.3823,3.8519-1.3118,4.8221c-14.2863,8.1772-24.9912,21.2566-30.1439,36.8271&#10;&#9;&#9;&#9;C403.9739,519.5882,402.5938,520.5294,401.1116,520.5294z" style="fill: rgb(94, 111, 100);"/>
		<path class="st7" d="M445.8129,475.9889c-1.4871,0-2.8713-0.9468-3.3578-2.4373c-0.6059-1.8549,0.4064-3.8506,2.2613-4.455&#10;&#9;&#9;&#9;c3.4689-1.1331,7.0572-2.0136,10.6642-2.6167c1.9287-0.3229,3.7456,0.9771,4.0672,2.9024s-0.9778,3.7456-2.9024,4.0672&#10;&#9;&#9;&#9;c-3.2591,0.5452-6.501,1.3401-9.6346,2.3628C446.5464,475.9323,446.1766,475.9889,445.8129,475.9889z" style="fill: rgb(94, 111, 100);"/>
		<path d="M 519.718609 538.999207 A 52.1432 52.1432 0 0 1 467.575409 591.142406 A 52.1432 52.1432 0 0 1 415.432209 538.999207 A 52.1432 52.1432 0 0 1 467.575409 486.856007 A 52.1432 52.1432 0 0 1 519.718609 538.999207 Z" class="st8" style="fill: rgb(49, 62, 55);"/>
		<path d="M 513.76931 538.999207 A 46.193901 46.193901 0 0 1 467.575409 585.193108 A 46.193901 46.193901 0 0 1 421.381508 538.999207 A 46.193901 46.193901 0 0 1 467.575409 492.805305 A 46.193901 46.193901 0 0 1 513.76931 538.999207 Z" class="st9" style="fill: rgb(167, 169, 172);"/>
		<path d="M 494.774208 538.999207 A 27.198799 27.198799 0 0 1 467.575409 566.198006 A 27.198799 27.198799 0 0 1 440.37661 538.999207 A 27.198799 27.198799 0 0 1 467.575409 511.800407 A 27.198799 27.198799 0 0 1 494.774208 538.999207 Z" class="st10" style="fill: rgb(194, 196, 198);"/>
		<path d="M 479.188709 538.999207 A 11.6133 11.6133 0 0 1 467.575409 550.612507 A 11.6133 11.6133 0 0 1 455.962109 538.999207 A 11.6133 11.6133 0 0 1 467.575409 527.385906 A 11.6133 11.6133 0 0 1 479.188709 538.999207 Z" class="st11" style="fill: rgb(228, 229, 230);"/>
		<path d="M 471.322987 500.53421 A 3.7477 3.7477 0 0 1 467.575287 504.28191 A 3.7477 3.7477 0 0 1 463.827587 500.53421 A 3.7477 3.7477 0 0 1 467.575287 496.78651 A 3.7477 3.7477 0 0 1 471.322987 500.53421 Z" class="st12" style="fill: rgb(103, 104, 107);"/>
		
			<path d="M 444.124195 511.800415 A 3.7477 3.7477 0 0 1 440.376495 515.548115 A 3.7477 3.7477 0 0 1 436.628795 511.800415 A 3.7477 3.7477 0 0 1 440.376495 508.052715 A 3.7477 3.7477 0 0 1 444.124195 511.800415 Z" transform="matrix(0.7071 -0.7071 0.7071 0.7071 -232.9142 461.2961)" class="st12" style="fill: rgb(103, 104, 107);"/>
		<path d="M 432.858113 538.999207 A 3.7477 3.7477 0 0 1 429.110413 542.746907 A 3.7477 3.7477 0 0 1 425.362713 538.999207 A 3.7477 3.7477 0 0 1 429.110413 535.251507 A 3.7477 3.7477 0 0 1 432.858113 538.999207 Z" class="st12" style="fill: rgb(103, 104, 107);"/>
		
			<path d="M 444.124195 566.19812 A 3.7477 3.7477 0 0 1 440.376495 569.94582 A 3.7477 3.7477 0 0 1 436.628795 566.19812 A 3.7477 3.7477 0 0 1 440.376495 562.45042 A 3.7477 3.7477 0 0 1 444.124195 566.19812 Z" transform="matrix(0.7071 -0.7071 0.7071 0.7071 -271.3792 477.2288)" class="st12" style="fill: rgb(103, 104, 107);"/>
		<path d="M 471.323109 577.464172 A 3.7477 3.7477 0 0 1 467.575409 581.211872 A 3.7477 3.7477 0 0 1 463.827709 577.464172 A 3.7477 3.7477 0 0 1 467.575409 573.716472 A 3.7477 3.7477 0 0 1 471.323109 577.464172 Z" class="st12" style="fill: rgb(103, 104, 107);"/>
		
			<path d="M 498.5219 566.19812 A 3.7477 3.7477 0 0 1 494.7742 569.94582 A 3.7477 3.7477 0 0 1 491.0265 566.19812 A 3.7477 3.7477 0 0 1 494.7742 562.45042 A 3.7477 3.7477 0 0 1 498.5219 566.19812 Z" transform="matrix(0.7071 -0.7071 0.7071 0.7071 -255.4465 515.6938)" class="st12" style="fill: rgb(103, 104, 107);"/>
		<path d="M 509.788014 538.999207 A 3.7477 3.7477 0 0 1 506.040314 542.746907 A 3.7477 3.7477 0 0 1 502.292614 538.999207 A 3.7477 3.7477 0 0 1 506.040314 535.251507 A 3.7477 3.7477 0 0 1 509.788014 538.999207 Z" class="st12" style="fill: rgb(103, 104, 107);"/>
		
			<path d="M 498.5219 511.800415 A 3.7477 3.7477 0 0 1 494.7742 515.548115 A 3.7477 3.7477 0 0 1 491.0265 511.800415 A 3.7477 3.7477 0 0 1 494.7742 508.052715 A 3.7477 3.7477 0 0 1 498.5219 511.800415 Z" transform="matrix(0.7071 -0.7071 0.7071 0.7071 -216.9815 499.761)" class="st12" style="fill: rgb(103, 104, 107);"/>
	</g>
	<path class="st5" d="M390.0292,457.3931l-1.7141-2.2468c31.041-23.6621,154.9998-61.712,168.1731-64.3467l0.5548,2.7713&#10;&#9;&#9;C544.3658,396.1062,420.0323,434.5218,390.0292,457.3931z" style="fill: rgb(211, 72, 72);"/>
	<g>
		<path d="M 1028.778526 538.999207 A 77.766197 77.766197 0 0 1 951.012329 616.765404 A 77.766197 77.766197 0 0 1 873.246132 538.999207 A 77.766197 77.766197 0 0 1 951.012329 461.233009 A 77.766197 77.766197 0 0 1 1028.778526 538.999207 Z" class="st6" style="fill: rgb(56, 69, 68);"/>
		<path class="st7" d="M884.5473,520.5294c-0.3671,0-0.7411-0.0579-1.1096-0.1808c-1.8535-0.6127-2.8582-2.6111-2.2441-4.4633&#10;&#9;&#9;&#9;c5.7013-17.228,17.5427-31.6958,33.3423-40.7411c1.692-0.9661,3.8519-0.3837,4.8221,1.3111&#10;&#9;&#9;&#9;c0.9688,1.6934,0.3823,3.8519-1.3111,4.8221c-14.287,8.1772-24.9926,21.2566-30.1459,36.8271&#10;&#9;&#9;&#9;C887.411,519.5896,886.0295,520.5294,884.5473,520.5294z" style="fill: rgb(94, 111, 100);"/>
		<path class="st7" d="M929.2507,475.9889c-1.4878,0-2.872-0.9468-3.3578-2.4373c-0.6058-1.8549,0.4058-3.8506,2.2606-4.455&#10;&#9;&#9;&#9;c3.4697-1.1331,7.0566-2.0136,10.6642-2.6167c1.9349-0.3229,3.7471,0.9785,4.0673,2.9024&#10;&#9;&#9;&#9;c0.3215,1.9253-0.9772,3.7456-2.9024,4.0672c-3.2598,0.5452-6.5004,1.3401-9.6346,2.3628&#10;&#9;&#9;&#9;C929.9836,475.9323,929.6137,475.9889,929.2507,475.9889z" style="fill: rgb(94, 111, 100);"/>
		<path d="M 1003.155529 538.999207 A 52.1432 52.1432 0 0 1 951.012329 591.142406 A 52.1432 52.1432 0 0 1 898.869129 538.999207 A 52.1432 52.1432 0 0 1 951.012329 486.856007 A 52.1432 52.1432 0 0 1 1003.155529 538.999207 Z" class="st8" style="fill: rgb(49, 62, 55);"/>
		<path d="M 997.20623 538.999207 A 46.193901 46.193901 0 0 1 951.012329 585.193108 A 46.193901 46.193901 0 0 1 904.818428 538.999207 A 46.193901 46.193901 0 0 1 951.012329 492.805305 A 46.193901 46.193901 0 0 1 997.20623 538.999207 Z" class="st9" style="fill: rgb(167, 169, 172);"/>
		<path d="M 978.211128 538.999207 A 27.198799 27.198799 0 0 1 951.012329 566.198006 A 27.198799 27.198799 0 0 1 923.81353 538.999207 A 27.198799 27.198799 0 0 1 951.012329 511.800407 A 27.198799 27.198799 0 0 1 978.211128 538.999207 Z" class="st10" style="fill: rgb(194, 196, 198);"/>
		<path d="M 962.625629 538.999207 A 11.6133 11.6133 0 0 1 951.012329 550.612507 A 11.6133 11.6133 0 0 1 939.399029 538.999207 A 11.6133 11.6133 0 0 1 951.012329 527.385906 A 11.6133 11.6133 0 0 1 962.625629 538.999207 Z" class="st11" style="fill: rgb(228, 229, 230);"/>
		<path d="M 954.760029 500.53421 A 3.7477 3.7477 0 0 1 951.012329 504.28191 A 3.7477 3.7477 0 0 1 947.264629 500.53421 A 3.7477 3.7477 0 0 1 951.012329 496.78651 A 3.7477 3.7477 0 0 1 954.760029 500.53421 Z" class="st12" style="fill: rgb(103, 104, 107);"/>
		
			<path d="M 927.561116 511.800415 A 3.7477 3.7477 0 0 1 923.813416 515.548115 A 3.7477 3.7477 0 0 1 920.065716 511.800415 A 3.7477 3.7477 0 0 1 923.813416 508.052715 A 3.7477 3.7477 0 0 1 927.561116 511.800415 Z" transform="matrix(0.7071 -0.7071 0.7071 0.7071 -91.3188 803.1376)" class="st12" style="fill: rgb(103, 104, 107);"/>
		<path d="M 916.295002 538.999207 A 3.7477 3.7477 0 0 1 912.547302 542.746907 A 3.7477 3.7477 0 0 1 908.799602 538.999207 A 3.7477 3.7477 0 0 1 912.547302 535.251507 A 3.7477 3.7477 0 0 1 916.295002 538.999207 Z" class="st12" style="fill: rgb(103, 104, 107);"/>
		
			<path d="M 927.561116 566.19812 A 3.7477 3.7477 0 0 1 923.813416 569.94582 A 3.7477 3.7477 0 0 1 920.065716 566.19812 A 3.7477 3.7477 0 0 1 923.813416 562.45042 A 3.7477 3.7477 0 0 1 927.561116 566.19812 Z" transform="matrix(0.7071 -0.7071 0.7071 0.7071 -129.7838 819.0703)" class="st12" style="fill: rgb(103, 104, 107);"/>
		<path d="M 954.760029 577.464172 A 3.7477 3.7477 0 0 1 951.012329 581.211872 A 3.7477 3.7477 0 0 1 947.264629 577.464172 A 3.7477 3.7477 0 0 1 951.012329 573.716472 A 3.7477 3.7477 0 0 1 954.760029 577.464172 Z" class="st12" style="fill: rgb(103, 104, 107);"/>
		
			<path d="M 981.958821 566.19812 A 3.7477 3.7477 0 0 1 978.211121 569.94582 A 3.7477 3.7477 0 0 1 974.463421 566.19812 A 3.7477 3.7477 0 0 1 978.211121 562.45042 A 3.7477 3.7477 0 0 1 981.958821 566.19812 Z" transform="matrix(0.7071 -0.7071 0.7071 0.7071 -113.8511 857.5353)" class="st12" style="fill: rgb(103, 104, 107);"/>
		<path d="M 993.224873 538.999207 A 3.7477 3.7477 0 0 1 989.477173 542.746907 A 3.7477 3.7477 0 0 1 985.729473 538.999207 A 3.7477 3.7477 0 0 1 989.477173 535.251507 A 3.7477 3.7477 0 0 1 993.224873 538.999207 Z" class="st12" style="fill: rgb(103, 104, 107);"/>
		
			<path d="M 981.958821 511.800415 A 3.7477 3.7477 0 0 1 978.211121 515.548115 A 3.7477 3.7477 0 0 1 974.463421 511.800415 A 3.7477 3.7477 0 0 1 978.211121 508.052715 A 3.7477 3.7477 0 0 1 981.958821 511.800415 Z" transform="matrix(0.7071 -0.7071 0.7071 0.7071 -75.3861 841.6026)" class="st12" style="fill: rgb(103, 104, 107);"/>
	</g>
	<path class="st13" d="M363.6222,550.6125h-16.2301c-6.2897,0-12.1104-3.3262-15.3036-8.7451l-9.9214-16.837h18.2109&#10;&#9;&#9;c9.8004,0,18.3588,6.6319,20.8054,16.1219L363.6222,550.6125z" style="fill: rgb(79, 50, 49);"/>
	<path class="st5" d="M892.9647,433.8731c-17.8464,35.9135-40.0566,80.61-43.4075,103.745&#10;&#9;&#9;c-0.8666,5.9832-1.6329,11.3161-2.3098,16.0618H745.9482l-4.5096-139.3755l10.6904-24.395l-2.5891-1.1345l-10.9471,24.9802&#10;&#9;&#9;l4.5286,139.9248H570.0557l-6.3226-134.3836l17.7821-28.2524l-2.3917-1.5043l-18.2556,29.0032l6.8245,145.0538h2.8299&#10;&#9;&#9;l-0.3336-7.0901h173.0241l0.2294,7.0901h2.8269l-0.2294-7.0901h100.8051c-0.3623,2.5483-0.6949,4.9011-1.0029,7.0901h2.8538&#10;&#9;&#9;c0.9545-6.7784,2.1543-15.192,3.6575-25.5728c3.286-22.6877,25.3859-67.1593,43.1425-102.8934&#10;&#9;&#9;c14.4926-29.1619,22.6685-45.9014,22.2061-50.8132l-2.8127,0.265C915.2977,388.9323,904.45,410.7617,892.9647,433.8731z" style="fill: rgb(211, 72, 72);"/>
	<g>
		<g>
			<path class="st8" d="M991.0295,376.1534c-37.9526-28.4766-108.598-81.4814-251.2329-81.4814&#10;&#9;&#9;&#9;&#9;c-84.7714,0-124.5085,37.5151-159.5673,70.6135c-8.6513,8.1678-17.1158,16.1568-25.9468,23.382&#10;&#9;&#9;&#9;&#9;c-3.2778,2.6817-1.6635,8.748,2.3224,8.6998c111.1389-1.3445,326.6368-4.1004,434.5917-5.4865&#10;&#9;&#9;&#9;&#9;c6.0444-0.0776,8.2826-9.4042,3.174-13.2238C993.2833,377.8442,992.1703,377.0092,991.0295,376.1534z" style="fill: rgb(49, 62, 55);"/>
			<path class="st14" d="M577.0364,384.4496c3.3364-3.0859,6.6287-6.1948,9.8806-9.2648&#10;&#9;&#9;&#9;&#9;c35.3301-33.3547,71.8632-67.844,152.8796-67.844c77.0751,0,132.6086,15.7841,173.123,34.5976&#10;&#9;&#9;&#9;&#9;c19.4406,9.0275,13.2762,38.1067-8.1563,38.3806C798.2439,381.6804,664.3486,383.3807,577.0364,384.4496z" style="fill: rgb(210, 186, 183);"/>
			<path d="M 759.32568359375 390.29150390625 L 729.52001953125 390.29150390625 L 763.2025146484375 304.6260986328125 L 793.0081787109375 304.6260986328125 Z" class="st8" style="fill: rgb(49, 62, 55);"/>
			<g>
				<path class="st15" d="M702.6649,310.0934c-2.8267,0.4429-5.5908,0.9337-8.2894,1.4744l-25.1283,71.7373&#10;&#9;&#9;&#9;&#9;&#9;c2.5881-0.0324,5.1933-0.065,7.8071-0.0978L702.6649,310.0934z" style="fill: rgb(224, 207, 203);"/>
				<path class="st15" d="M638.7289,383.6866c6.9645-0.0868,14.0728-0.1755,21.2917-0.2659l24.3677-69.5656&#10;&#9;&#9;&#9;&#9;&#9;c-8.6356,2.2311-16.6202,4.9564-24.0374,8.1042L638.7289,383.6866z" style="fill: rgb(224, 207, 203);"/>
				<path class="st15" d="M813.4041,381.4837c7.1313-0.0907,14.2347-0.1811,21.2935-0.2709l20.9637-59.8481&#10;&#9;&#9;&#9;&#9;&#9;c-6.2794-1.663-12.8055-3.2108-19.5769-4.6298L813.4041,381.4837z" style="fill: rgb(224, 207, 203);"/>
				<path class="st15" d="M871.0637,325.8085c-2.309-0.7216-4.6485-1.4308-7.0297-2.1219l-20.1092,57.4085&#10;&#9;&#9;&#9;&#9;&#9;c2.6107-0.0333,5.2125-0.0664,7.8077-0.0994L871.0637,325.8085z" style="fill: rgb(224, 207, 203);"/>
			</g>
		</g>
		<g>
			<path class="st16" d="M562.3005,399.2662L562.3005,399.2662c0,8.1538,6.61,14.7637,14.7637,14.7637h11.5814&#10;&#9;&#9;&#9;&#9;c4.3716,0,7.7314-3.8691,7.1186-8.1975l-3.0046-21.2202c-0.7128-5.034-6.2828-7.7579-10.6938-5.2297l-12.3433,7.0748&#10;&#9;&#9;&#9;&#9;C565.132,389.0885,562.3005,393.9751,562.3005,399.2662z" style="fill: rgb(214, 66, 67);"/>
			<path class="st17" d="M571.8399,399.2662c0-5.2911,2.0261-10.1777,5.3109-12.8089l8.8322-7.0747&#10;&#9;&#9;&#9;&#9;c0.4368-0.3499,0.89-0.5898,1.3471-0.7462c-1.6984-0.4155-3.5662-0.2271-5.2642,0.7462l-12.3433,7.0747&#10;&#9;&#9;&#9;&#9;c-4.5905,2.6312-7.4221,7.5178-7.4221,12.8089c0,8.1538,6.6099,14.7637,14.7638,14.7637h5.3397&#10;&#9;&#9;&#9;&#9;C576.5696,414.03,571.8399,407.42,571.8399,399.2662z" style="fill: rgb(243, 118, 119);"/>
		</g>
	</g>
	<g>
		<path d="M 876.393476 410.880615 A 11.5977 11.5977 0 0 1 864.795776 422.478315 A 11.5977 11.5977 0 0 1 853.198076 410.880615 A 11.5977 11.5977 0 0 1 864.795776 399.282915 A 11.5977 11.5977 0 0 1 876.393476 410.880615 Z" class="st18" style="fill: rgb(224, 68, 69);"/>
		<path class="st19" d="M881.1044,406.3181h-32.617c-2.5198,0-4.5625,2.0428-4.5625,4.5625c0,2.5198,2.0427,4.5626,4.5625,4.5626&#10;&#9;&#9;&#9;h32.617c2.5197,0,4.5625-2.0428,4.5625-4.5626C885.6669,408.3609,883.6241,406.3181,881.1044,406.3181z" style="fill: rgb(244, 130, 132);"/>
		<path class="st20" d="M860.9656,409.1446H848.482c-0.5854,0-1.0599-0.4745-1.0599-1.0599l0,0&#10;&#9;&#9;&#9;c0-0.5854,0.4745-1.0599,1.0599-1.0599h12.4836c0.5854,0,1.0599,0.4745,1.0599,1.0599l0,0&#10;&#9;&#9;&#9;C862.0256,408.6701,861.551,409.1446,860.9656,409.1446z" style="fill: rgb(247, 164, 166);"/>
		<path class="st20" d="M869.3273,409.1446h-3.4716c-0.5854,0-1.0599-0.4745-1.0599-1.0599l0,0&#10;&#9;&#9;&#9;c0-0.5854,0.4745-1.0599,1.0599-1.0599h3.4716c0.5854,0,1.0599,0.4745,1.0599,1.0599l0,0&#10;&#9;&#9;&#9;C870.3873,408.6701,869.9127,409.1446,869.3273,409.1446z" style="fill: rgb(247, 164, 166);"/>
	</g>
	<g>
		<path d="M 714.262617 410.880615 A 11.5977 11.5977 0 0 1 702.664917 422.478315 A 11.5977 11.5977 0 0 1 691.067217 410.880615 A 11.5977 11.5977 0 0 1 702.664917 399.282915 A 11.5977 11.5977 0 0 1 714.262617 410.880615 Z" class="st18" style="fill: rgb(224, 68, 69);"/>
		<path class="st19" d="M718.9734,406.3181h-32.6169c-2.5198,0-4.5625,2.0428-4.5625,4.5625c0,2.5198,2.0427,4.5626,4.5625,4.5626&#10;&#9;&#9;&#9;h32.6169c2.5198,0,4.5625-2.0428,4.5625-4.5626C723.5359,408.3609,721.4932,406.3181,718.9734,406.3181z" style="fill: rgb(244, 130, 132);"/>
		<path class="st20" d="M698.8347,409.1446h-12.4836c-0.5854,0-1.0599-0.4745-1.0599-1.0599l0,0&#10;&#9;&#9;&#9;c0-0.5854,0.4745-1.0599,1.0599-1.0599h12.4836c0.5854,0,1.0599,0.4745,1.0599,1.0599l0,0&#10;&#9;&#9;&#9;C699.8947,408.6701,699.4201,409.1446,698.8347,409.1446z" style="fill: rgb(247, 164, 166);"/>
		<path class="st20" d="M707.1964,409.1446h-3.4716c-0.5854,0-1.0599-0.4745-1.0599-1.0599l0,0&#10;&#9;&#9;&#9;c0-0.5854,0.4745-1.0599,1.0599-1.0599h3.4716c0.5854,0,1.0599,0.4745,1.0599,1.0599l0,0&#10;&#9;&#9;&#9;C708.2563,408.6701,707.7818,409.1446,707.1964,409.1446z" style="fill: rgb(247, 164, 166);"/>
	</g>
	<path class="st21" d="M382.9618,453.544H367.269c-15.5302,0-29.4413,9.4568-35.315,23.8335&#10;&#9;&#9;c-1.8866,4.6176-3.5175,9.4306-4.8757,14.3029c-0.8307,2.9798,1.4521,5.9229,4.5455,5.9229h30.3572&#10;&#9;&#9;c4.6844,0,8.987-2.6095,11.119-6.7805c4.3128-8.4375,9.7243-16.2189,16.0445-23.1588&#10;&#9;&#9;C394.085,462.2391,390.2991,453.544,382.9618,453.544z" style="fill: rgb(239, 230, 227);"/>
	<path class="st22" d="M353.1667,456.2691c-9.4524,3.7874-17.205,11.2991-21.2126,21.1083&#10;&#9;&#9;c-1.8866,4.6176-3.5175,9.4306-4.8757,14.3029c-0.8307,2.9798,1.4521,5.9229,4.5455,5.9229h25.3346&#10;&#9;&#9;c5.6427-4.5776,9.2547-11.5602,9.2547-19.3923C366.2132,468.7393,360.9384,460.5004,353.1667,456.2691z" style="fill: rgb(211, 194, 190);"/>
	
		<path d="M 359.029202 479.806702 A 11.5415 8.3617 0 0 1 347.487701 488.168402 A 11.5415 8.3617 0 0 1 335.946201 479.806702 A 11.5415 8.3617 0 0 1 347.487701 471.445002 A 11.5415 8.3617 0 0 1 359.029202 479.806702 Z" transform="matrix(0.4644 -0.8856 0.8856 0.4644 -238.813 564.7399)" class="st23" style="fill: rgb(255, 221, 119);"/>
	<path class="st24" d="M368.6732,486.2266c-0.3485,0-0.7025-0.0856-1.0289-0.2678c-1.0226-0.5686-1.3905-1.8604-0.8212-2.8831&#10;&#9;&#9;c2.2758-4.0907,4.8304-8.0834,7.5927-11.8704c0.6901-0.9454,2.0164-1.1538,2.9617-0.4637&#10;&#9;&#9;c0.9461,0.6901,1.1538,2.0164,0.4637,2.9617c-2.6609,3.6477-5.1216,7.494-7.3139,11.4343&#10;&#9;&#9;C370.1403,485.8346,369.4178,486.2266,368.6732,486.2266z" style="fill: rgb(255, 255, 255);"/>
	<path class="st24" d="M381.282,468.0256c-0.4844,0-0.9716-0.1656-1.3698-0.5038c-0.8929-0.7563-1.0027-2.095-0.2457-2.9879&#10;&#9;&#9;c0.8771-1.0323,1.7721-2.0509,2.6857-3.0542c0.7874-0.8667,2.1274-0.9302,2.9948-0.1408c0.866,0.7881,0.9288,2.1295,0.1408,2.9948&#10;&#9;&#9;c-0.8805,0.9675-1.7438,1.9474-2.5877,2.9438C382.4807,467.7716,381.8831,468.0256,381.282,468.0256z" style="fill: rgb(255, 255, 255);"/>
	<path d="M 360.383591 472.453888 A 4.7715 4.7715 0 0 1 355.612091 477.225388 A 4.7715 4.7715 0 0 1 350.840591 472.453888 A 4.7715 4.7715 0 0 1 355.612091 467.682388 A 4.7715 4.7715 0 0 1 360.383591 472.453888 Z" class="st25" style="fill: rgb(255, 241, 208);"/>
	<path class="st23" d="M1065.333,406.3181h-30.6492c-3.2615,0-5.9053,2.6439-5.9053,5.9053l0,0c0,2.007,1.0194,3.8767,2.7065,4.9639&#10;&#9;&#9;l48.4504,31.2213C1074.2067,437.8414,1067.1211,422.091,1065.333,406.3181z" style="fill: rgb(255, 221, 119);"/>
	<path class="st5" d="M1064.7542,432.6987h7.73c-1.3265-3.2656-2.5692-6.693-3.6548-10.2203h-4.0752&#10;&#9;&#9;c-2.8223,0-5.1102,2.2879-5.1102,5.1101C1059.6439,430.4108,1061.9319,432.6987,1064.7542,432.6987z" style="fill: rgb(211, 72, 72);"/>
	<path class="st24" d="M1059.5566,415.4432h-20.7886c-1.7393,0-3.1493-1.41-3.1493-3.1493l0,0c0-1.7393,1.41-3.1493,3.1493-3.1493&#10;&#9;&#9;h20.7886c1.7394,0,3.1493,1.41,3.1493,3.1493l0,0C1062.7059,414.0332,1061.296,415.4432,1059.5566,415.4432z" style="fill: rgb(255, 255, 255);"/>
</g>
<g>
	<g>
		<g>
			<path class="st26" d="M476.4853,664.5881h-74.372c-5.2034,0-9.4216-4.2182-9.4216-9.4216l0,0&#10;&#9;&#9;&#9;&#9;c0-5.2034,4.2182-9.4216,9.4216-9.4216h74.372c5.2034,0,9.4216,4.2182,9.4216,9.4216l0,0&#10;&#9;&#9;&#9;&#9;C485.9069,660.3699,481.6887,664.5881,476.4853,664.5881z" style="fill: rgb(0, 52, 98);"/>
			<path d="M 422.8703 664.588074 H 455.728199 V 747.498276 H 422.8703 V 664.588074 Z" class="st27" style="fill: rgb(50, 94, 137);"/>
			<path d="M 455.72821044921875 664.5880737304688 L 422.87030029296875 664.5880737304688 L 422.87030029296875 671.53662109375 L 455.72821044921875 671.53662109375 L 455.72821044921875 747.498291015625 L 463.0354919433594 747.498291015625 L 463.0354919433594 664.5880737304688 Z" class="st26" style="fill: rgb(0, 52, 98);"/>
			<path class="st28" d="M392.6916,655.1664v0.0001c0,1.2946,0.262,2.5279,0.7344,3.6508h91.7465&#10;&#9;&#9;&#9;&#9;c0.4724-1.1229,0.7344-2.3562,0.7344-3.6508v-0.0001c0-0.1987-0.0176-0.3931-0.0298-0.5888h-93.1558&#10;&#9;&#9;&#9;&#9;C392.7092,654.7734,392.6916,654.9677,392.6916,655.1664z" style="fill: rgb(1, 37, 62);"/>
		</g>
		<g>
			<path class="st26" d="M997.8867,664.5881h-74.372c-5.2034,0-9.4216-4.2182-9.4216-9.4216l0,0&#10;&#9;&#9;&#9;&#9;c0-5.2034,4.2182-9.4216,9.4216-9.4216h74.372c5.2034,0,9.4216,4.2182,9.4216,9.4216l0,0&#10;&#9;&#9;&#9;&#9;C1007.3083,660.3699,1003.0901,664.5881,997.8867,664.5881z" style="fill: rgb(0, 52, 98);"/>
			<path d="M 944.27179 664.588074 H 977.129688 V 747.498276 H 944.27179 V 664.588074 Z" class="st27" style="fill: rgb(50, 94, 137);"/>
			<path d="M 977.1295776367188 664.5880737304688 L 944.2717895507812 664.5880737304688 L 944.2717895507812 671.53662109375 L 977.1295776367188 671.53662109375 L 977.1295776367188 747.498291015625 L 984.43701171875 747.498291015625 L 984.43701171875 664.5880737304688 Z" class="st26" style="fill: rgb(0, 52, 98);"/>
			<path class="st28" d="M914.0931,655.1664v0.0001c0,1.2946,0.262,2.5279,0.7344,3.6508h91.7465&#10;&#9;&#9;&#9;&#9;c0.4724-1.1229,0.7344-2.3562,0.7344-3.6508v-0.0001c0-0.1987-0.0176-0.3931-0.0297-0.5888h-93.1558&#10;&#9;&#9;&#9;&#9;C914.1107,654.7734,914.0931,654.9677,914.0931,655.1664z" style="fill: rgb(1, 37, 62);"/>
		</g>
	</g>
	<g>
		<path class="st26" d="M837.0291,654.5776h282.1699c10.4415,0,18.906-8.4645,18.906-18.9061v-0.0001&#10;&#9;&#9;&#9;c0-10.4415-8.4645-18.9061-18.906-18.9061H837.0291c-10.4415,0-18.9061,8.4645-18.9061,18.9061v0.0001&#10;&#9;&#9;&#9;C818.123,646.1131,826.5875,654.5776,837.0291,654.5776z" style="fill: rgb(0, 52, 98);"/>
		<path class="st27" d="M294.9335,654.5776h780.2678c10.4415,0,18.9061-8.4645,18.9061-18.9061v-0.0001&#10;&#9;&#9;&#9;c0-10.4415-8.4646-18.9061-18.9061-18.9061H294.9335c-10.4415,0-18.9061,8.4645-18.9061,18.9061v0.0001&#10;&#9;&#9;&#9;C276.0274,646.1131,284.4919,654.5776,294.9335,654.5776z" style="fill: rgb(50, 94, 137);"/>
		<path class="st29" d="M280.8011,654.5776h41.371c10.4415,0,18.9061-8.4645,18.9061-18.9061v-0.0001&#10;&#9;&#9;&#9;c0-10.4415-8.4646-18.9061-18.9061-18.9061h-41.371c-10.4415,0-18.9061,8.4645-18.9061,18.9061v0.0001&#10;&#9;&#9;&#9;C261.895,646.1131,270.3595,654.5776,280.8011,654.5776z" style="fill: rgb(100, 130, 167);"/>
		<path class="st29" d="M712.1905,622.7797h-102.108c-3.0244,0-5.4763,2.4518-5.4763,5.4763c0,3.0244,2.4519,5.4763,5.4763,5.4763&#10;&#9;&#9;&#9;h102.108c3.0245,0,5.4763-2.4519,5.4763-5.4763C717.6668,625.2315,715.215,622.7797,712.1905,622.7797z" style="fill: rgb(100, 130, 167);"/>
		<path class="st29" d="M759.7095,622.7797h-15.369c-3.0244,0-5.4763,2.4518-5.4763,5.4763c0,3.0244,2.4519,5.4763,5.4763,5.4763&#10;&#9;&#9;&#9;h15.369c3.0245,0,5.4763-2.4519,5.4763-5.4763C765.1858,625.2315,762.734,622.7797,759.7095,622.7797z" style="fill: rgb(100, 130, 167);"/>
		<path class="st29" d="M874.429,622.7797h-15.369c-3.0245,0-5.4763,2.4518-5.4763,5.4763c0,3.0244,2.4518,5.4763,5.4763,5.4763&#10;&#9;&#9;&#9;h15.369c3.0245,0,5.4763-2.4519,5.4763-5.4763C879.9053,625.2315,877.4535,622.7797,874.429,622.7797z" style="fill: rgb(100, 130, 167);"/>
	</g>
</g>
<path class="st30" d="M1298.5079,747.4983H101.492c-11.3174,0-20.492,9.1746-20.492,20.4921c0,11.3174,9.1746,20.492,20.492,20.492&#10;&#9;h1197.0159c11.3174,0,20.4921-9.1746,20.4921-20.492C1319,756.6729,1309.8253,747.4983,1298.5079,747.4983z" style="fill: rgb(59, 71, 82);"/>
<g>
	<path class="st31" d="M324.8265,608.6989c-7.322,0-13.9666-0.8867-19.1704-1.5806c-2.1326-0.285-4.1472-0.5542-5.8587-0.7241&#10;&#9;&#9;l2.1837-22.0012c2.0822,0.2059,4.2753,0.4981,6.5979,0.8076c20.8251,2.7768,44.4334,5.9264,57.2484-32.1725l20.9575,7.0477&#10;&#9;&#9;C372.9371,601.2481,346.0467,608.6989,324.8265,608.6989z" style="fill: rgb(227, 155, 100);"/>
	<path class="st32" d="M382.2895,558.5641c-14.2982,36.6058-39.7692,43.4429-60.0628,43.4429&#10;&#9;&#9;c-7.322,0-13.9666-0.8867-19.1704-1.5806c-0.906-0.1211-1.7831-0.2374-2.6322-0.3464l-0.6267,6.3141&#10;&#9;&#9;c1.7115,0.1699,3.7261,0.439,5.8587,0.7241c5.2038,0.6938,11.8484,1.5806,19.1704,1.5806c21.2202,0,48.1106-7.4508,61.9584-48.623&#10;&#9;&#9;L382.2895,558.5641z" style="fill: rgb(219, 142, 89);"/>
	<path class="st33" d="M277.987,748.073c-2.016,0-4.0457-0.4376-5.9465-1.3315l-41.6336-19.6087l8.7924-18.6702l27.5849,12.9914&#10;&#9;&#9;l-15.2478-46.2421l19.5986-6.4633l20.1096,60.9882c1.7483,5.3045,0.1764,11.1229-4.0046,14.8253&#10;&#9;&#9;C284.6324,746.871,281.3295,748.073,277.987,748.073z" style="fill: rgb(2, 109, 156);"/>
	<path class="st34" d="M271.1351,668.7486l-19.5986,6.4633l6.5745,19.9385c8.8036,4.1896,18.9189,10.4799,27.5784,17.7381&#10;&#9;&#9;L271.1351,668.7486z" style="fill: rgb(6, 93, 124);"/>
	<path class="st31" d="M376.0586,556.3692c-0.1612,0-0.3232-0.0057-0.4858-0.0173c-3.6541-0.2649-6.4014-3.4404-6.1373-7.0952&#10;&#9;&#9;l1.7569-24.2813c0.2642-3.6534,3.4461-6.4,7.0945-6.1365c3.6541,0.2649,6.4014,3.4404,6.1373,7.0952l-1.7569,24.2813&#10;&#9;&#9;C382.4147,553.7062,379.504,556.3692,376.0586,556.3692z" style="fill: rgb(227, 155, 100);"/>
	<path class="st31" d="M378.9441,556.2785c-1.6979,0-3.3951-0.6478-4.6906-1.9433c-2.5904-2.5897-2.5904-6.79,0-9.3797&#10;&#9;&#9;l17.2141-17.2148c2.5911-2.5911,6.7901-2.5911,9.3812,0c2.5903,2.5897,2.5903,6.7901,0,9.3797l-17.2141,17.2148&#10;&#9;&#9;C382.3391,555.6307,380.6419,556.2785,378.9441,556.2785z" style="fill: rgb(227, 155, 100);"/>
	<path d="M 396.813499 552.680481 A 17.4049 17.4049 0 0 1 379.4086 570.085381 A 17.4049 17.4049 0 0 1 362.0037 552.680481 A 17.4049 17.4049 0 0 1 379.4086 535.275581 A 17.4049 17.4049 0 0 1 396.813499 552.680481 Z" class="st31" style="fill: rgb(227, 155, 100);"/>
	<path class="st35" d="M303.1973,593.9337c-2.3802,0-4.7729-0.799-6.7462-2.4392c-4.4869-3.7299-5.1013-10.3895-1.372-14.877&#10;&#9;&#9;l15.289-18.3959c3.7287-4.4852,10.3889-5.1019,14.8758-1.3721c4.4869,3.7299,5.1013,10.3895,1.372,14.877l-15.289,18.3959&#10;&#9;&#9;C309.2379,592.6349,306.2285,593.9337,303.1973,593.9337z" style="fill: rgb(252, 186, 129);"/>
	<g>
		<path class="st10" d="M423.268,508.0916c-27.968,0-50.6404,22.6724-50.6404,50.6404c0,27.9678,22.6725,50.6403,50.6404,50.6403&#10;&#9;&#9;&#9;c27.9679,0,50.6404-22.6725,50.6404-50.6403C473.9084,530.764,451.236,508.0916,423.268,508.0916z M462.8428,558.7319&#10;&#9;&#9;&#9;c0,3.906-0.575,7.676-1.6293,11.2402l-18.9427-6.8781c-1.8102-0.6573-2.9294-2.4037-2.9255-4.3295c0-0.0109,0-0.0218,0-0.0327&#10;&#9;&#9;&#9;s0-0.0219,0-0.0328c-0.0039-1.9258,1.1154-3.6722,2.9255-4.3295l18.9427-6.8781&#10;&#9;&#9;&#9;C462.2678,551.0558,462.8428,554.8259,462.8428,558.7319z M451.9662,531.4978l-15.4366,12.9733&#10;&#9;&#9;&#9;c-1.4353,1.2062-3.4752,1.3876-5.0876,0.431c-0.1002-0.0594-0.201-0.1178-0.3026-0.175&#10;&#9;&#9;&#9;c-1.6256-0.9171-2.4771-2.7733-2.1516-4.6112l3.5182-19.8632C440.0699,522.0622,446.7858,526.0407,451.9662,531.4978z&#10;&#9;&#9;&#9; M414.03,520.2526l3.5182,19.8632c0.3255,1.8379-0.526,3.6942-2.1516,4.6112c-0.1015,0.0573-0.2024,0.1156-0.3025,0.175&#10;&#9;&#9;&#9;c-1.6124,0.9565-3.6523,0.7752-5.0875-0.431l-15.4368-12.9732C399.7503,526.0407,406.4662,522.0622,414.03,520.2526z&#10;&#9;&#9;&#9; M383.6933,558.7319c0-3.9061,0.575-7.6761,1.6293-11.2403l18.9427,6.8781c1.8102,0.6573,2.9294,2.4037,2.9255,4.3295&#10;&#9;&#9;&#9;c0,0.0109,0,0.0219,0,0.0328s0,0.0219,0,0.0327c0.0039,1.9258-1.1154,3.6722-2.9255,4.3295l-18.9427,6.8781&#10;&#9;&#9;&#9;C384.2683,566.408,383.6933,562.6379,383.6933,558.7319z M394.5699,585.966l15.4368-12.9733&#10;&#9;&#9;&#9;c1.4353-1.2062,3.4751-1.3876,5.0876-0.431c0.1001,0.0594,0.201,0.1177,0.3025,0.175c1.6256,0.9171,2.4771,2.7733,2.1516,4.6111&#10;&#9;&#9;&#9;l-3.5183,19.8633C406.4662,595.4017,399.7503,591.4232,394.5699,585.966z M432.506,597.2113l-3.5182-19.8633&#10;&#9;&#9;&#9;c-0.3255-1.8379,0.5259-3.6941,2.1516-4.6111c0.1015-0.0573,0.2023-0.1157,0.3025-0.175c1.6124-0.9566,3.6523-0.7753,5.0876,0.431&#10;&#9;&#9;&#9;l15.4368,12.9733C446.7858,591.4231,440.0699,595.4017,432.506,597.2113z" style="fill: rgb(194, 196, 198);"/>
		<path class="st11" d="M423.268,508.0915c-21.2663,0-39.4588,13.1149-46.9621,31.6929c2.513,3.4341,5.3944,6.5777,8.5845,9.3822&#10;&#9;&#9;&#9;c0.1396-0.5602,0.2693-1.1243,0.4321-1.675l18.9426,6.8781c1.8102,0.6573,2.9295,2.4037,2.9255,4.3295c0,0.011,0,0.0219,0,0.0328&#10;&#9;&#9;&#9;s0,0.0218,0,0.0327c0.0018,0.8751-0.2384,1.7066-0.6598,2.4222c5.3018,1.5907,10.9174,2.4562,16.7372,2.4562&#10;&#9;&#9;&#9;s11.4354-0.8655,16.7372-2.4562c-0.4214-0.7156-0.6616-1.5472-0.6598-2.4222c0-0.0109,0-0.0218,0-0.0327s0-0.0219,0-0.0328&#10;&#9;&#9;&#9;c-0.004-1.9257,1.1153-3.6722,2.9254-4.3295l18.9427-6.8781c0.1628,0.5507,0.2924,1.1148,0.4321,1.675&#10;&#9;&#9;&#9;c3.19-2.8044,6.0714-5.9481,8.5844-9.3822C462.7268,521.2064,444.5343,508.0915,423.268,508.0915z M415.3966,544.7269&#10;&#9;&#9;&#9;c-0.1015,0.0573-0.2024,0.1157-0.3024,0.175c-1.6125,0.9565-3.6523,0.7752-5.0876-0.431l-15.4368-12.9732&#10;&#9;&#9;&#9;c5.1804-5.4571,11.8963-9.4356,19.4602-11.2452l3.5182,19.8633C417.8738,541.9537,417.0223,543.8099,415.3966,544.7269z&#10;&#9;&#9;&#9; M436.5296,544.4711c-1.4353,1.2062-3.4752,1.3876-5.0876,0.431c-0.1001-0.0594-0.201-0.1178-0.3026-0.1751&#10;&#9;&#9;&#9;c-1.6256-0.9171-2.4771-2.7733-2.1516-4.6111l3.5182-19.8633c7.5639,1.8096,14.2798,5.7881,19.4602,11.2452L436.5296,544.4711z" style="fill: rgb(228, 229, 230);"/>
		<path d="M 433.275505 558.731873 A 10.0075 10.0075 0 0 1 423.268005 568.739372 A 10.0075 10.0075 0 0 1 413.260506 558.731873 A 10.0075 10.0075 0 0 1 423.268005 548.724373 A 10.0075 10.0075 0 0 1 433.275505 558.731873 Z" class="st9" style="fill: rgb(167, 169, 172);"/>
		
			<path d="M 430.566606 558.731873 A 7.2986 7.2986 0 0 1 423.268005 566.030473 A 7.2986 7.2986 0 0 1 415.969405 558.731873 A 7.2986 7.2986 0 0 1 423.268005 551.433272 A 7.2986 7.2986 0 0 1 430.566606 558.731873 Z" transform="matrix(0.2208 -0.9753 0.9753 0.2208 -215.1369 848.1732)" class="st11" style="fill: rgb(228, 229, 230);"/>
		<path class="st24" d="M386.7777,532.2264c-0.3306,0-0.6627-0.1044-0.9441-0.3223c-0.6786-0.522-0.8049-1.4948-0.2829-2.1726&#10;&#9;&#9;&#9;c1.137-1.4752,2.3731-2.8989,3.6743-4.2288c0.5991-0.6113,1.581-0.6203,2.1908-0.0242c0.612,0.5977,0.6226,1.5796,0.0242,2.1908&#10;&#9;&#9;&#9;c-1.2164,1.2437-2.3716,2.5735-3.4337,3.9534C387.7007,532.0192,387.2415,532.2264,386.7777,532.2264z" style="fill: rgb(255, 255, 255);"/>
		<path class="st24" d="M377.2415,560.2829c0,0-0.0008,0-0.0015,0c-0.8556-0.0015-1.5485-0.6945-1.5478-1.5508&#10;&#9;&#9;&#9;c0.003-3.5116,0.4017-7.0459,1.1847-10.5031c1.0765-4.7552,2.8557-9.2836,5.2863-13.4563&#10;&#9;&#9;&#9;c0.4312-0.7414,1.3806-0.988,2.1189-0.5598c0.7391,0.4312,0.9895,1.3798,0.5591,2.1182&#10;&#9;&#9;&#9;c-2.2725,3.9019-3.9352,8.1337-4.9429,12.5818c-0.7315,3.2347-1.1045,6.539-1.1075,9.8221&#10;&#9;&#9;&#9;C378.79,559.59,378.0963,560.2829,377.2415,560.2829z" style="fill: rgb(255, 255, 255);"/>
	</g>
	<path class="st31" d="M325.2439,556.8495c-4.4869-3.7298-11.1471-3.1132-14.8758,1.3721l-2.726,3.2798v3.1083&#10;&#9;&#9;c0,7.6245,3.7708,14.355,9.5356,18.4728l9.4381-11.3561C330.3452,567.239,329.7308,560.5794,325.2439,556.8495z" style="fill: rgb(227, 155, 100);"/>
	<g>
		<path class="st35" d="M337.7157,580.9351h-9.6314c-12.5401,0-22.7059-10.1658-22.7059-22.7059v-27.942&#10;&#9;&#9;&#9;c0-12.5401,10.1658-22.7059,22.7059-22.7059h9.6314c12.5401,0,22.7059,10.1658,22.7059,22.7059v27.942&#10;&#9;&#9;&#9;C360.4216,570.7693,350.2558,580.9351,337.7157,580.9351z" style="fill: rgb(252, 186, 129);"/>
		<path d="M 354.877086 544.258179 A 2.6739 3.9272 0 0 1 352.203186 548.185379 A 2.6739 3.9272 0 0 1 349.529286 544.258179 A 2.6739 3.9272 0 0 1 352.203186 540.330979 A 2.6739 3.9272 0 0 1 354.877086 544.258179 Z" class="st36" style="fill: rgb(109, 83, 80);"/>
		<g>
			<g>
				<path class="st37" d="M357.3597,540.5413c-0.4442-0.2559-0.8777-0.5153-1.3064-0.7714&#10;&#9;&#9;&#9;&#9;&#9;c-4.0208-2.4038-6.9271-4.1394-15.3493-1.653c0,0-0.2546-1.3598,1.5242-2.6103c7.4135-5.2119,11.1087-2.0467,13.8177,1.5204&#10;&#9;&#9;&#9;&#9;&#9;C357.0676,538.3724,357.3597,540.5413,357.3597,540.5413z" style="fill: rgb(203, 98, 40);"/>
			</g>
		</g>
		<path class="st35" d="M361.8817,554.6781h-4.0038c-2.0577,0-3.7258-1.6681-3.7258-3.7258v-0.0001&#10;&#9;&#9;&#9;c0-2.0577,1.6681-3.7258,3.7258-3.7258h4.0038c2.0577,0,3.7258,1.6681,3.7258,3.7258v0.0001&#10;&#9;&#9;&#9;C365.6075,553.01,363.9394,554.6781,361.8817,554.6781z" style="fill: rgb(252, 186, 129);"/>
		<path class="st38" d="M353.5906,583.3699h-1.9943c-4.0693,0-7.3681-3.2988-7.3681-7.3681v-15.8226&#10;&#9;&#9;&#9;c0-1.5126,1.2262-2.7388,2.7388-2.7388h11.7887c2.1703,0,3.9296,1.7593,3.9296,3.9296v12.9052&#10;&#9;&#9;&#9;C362.6853,579.2981,358.6135,583.3699,353.5906,583.3699z" style="fill: rgb(181, 83, 39);"/>
		<g>
			<path class="st39" d="M334.583,498.7844L334.583,498.7844c-1.1123,0-2.0139-0.9017-2.0139-2.0139v-0.6042&#10;&#9;&#9;&#9;&#9;c0-1.1123,0.9017-2.0139,2.0139-2.0139l0,0c1.1123,0,2.0139,0.9017,2.0139,2.0139v0.6042&#10;&#9;&#9;&#9;&#9;C336.5969,497.8827,335.6953,498.7844,334.583,498.7844z" style="fill: rgb(0, 143, 193);"/>
			<path class="st40" d="M362.6853,531.8759h-60.6904v-5.2785c0-16.763,13.5891-30.3521,30.3521-30.3521h1.6627&#10;&#9;&#9;&#9;&#9;c15.8371,0,28.6756,12.8385,28.6756,28.6756V531.8759z" style="fill: rgb(64, 177, 229);"/>
			<path class="st41" d="M336.4268,496.3542c-0.7976-0.0667-1.6023-0.1089-2.4171-0.1089h-1.6627&#10;&#9;&#9;&#9;&#9;c-16.763,0-30.3521,13.5891-30.3521,30.352v5.2786h11.0767v-10.1192C313.0716,508.3951,323.3487,497.4513,336.4268,496.3542z" style="fill: rgb(116, 192, 235);"/>
			<path class="st42" d="M346.7044,516.8364v15.0395h15.9809v-6.955c0-7.2172-2.6722-13.8063-7.0735-18.8468&#10;&#9;&#9;&#9;&#9;C350.5408,507.0364,346.7044,511.4854,346.7044,516.8364z" style="fill: rgb(236, 240, 249);"/>
			<path class="st39" d="M377.2939,527.6467h-30.9511c-1.1679,0-2.1147,0.9467-2.1147,2.1146l0,0&#10;&#9;&#9;&#9;&#9;c0,1.1679,0.9467,2.1146,2.1147,2.1146h30.9511c1.1679,0,2.1146-0.9467,2.1146-2.1146l0,0&#10;&#9;&#9;&#9;&#9;C379.4086,528.5934,378.4618,527.6467,377.2939,527.6467z" style="fill: rgb(0, 143, 193);"/>
		</g>
		<path class="st37" d="M329.5859,531.8759h-5.8654h-10.2586h-10.2586v26.5633c0,1.7157,1.3909,3.1066,3.1066,3.1066h10.767&#10;&#9;&#9;&#9;c3.6692,0,6.6437-2.9745,6.6437-6.6437v-11.58h5.8654l0,8.283c0,1.7198,1.1595,3.3124,2.8519,3.618&#10;&#9;&#9;&#9;c2.2236,0.4016,4.1592-1.2963,4.1592-3.4464v-6.4635v-13.4373H329.5859z" style="fill: rgb(203, 98, 40);"/>
		<g>
			<path class="st38" d="M306.3099,561.5458h10.767c3.6692,0,6.6436-2.9745,6.6436-6.6437v-11.0867&#10;&#9;&#9;&#9;&#9;c-4.7138,3.1047-11.2759,5.9097-20.5173,8.0605v6.5633C303.2032,560.1548,304.5941,561.5458,306.3099,561.5458z" style="fill: rgb(181, 83, 39);"/>
			<path class="st38" d="M324.4666,543.3221h5.1193v8.283c0,1.7198,1.1594,3.3124,2.8519,3.618&#10;&#9;&#9;&#9;&#9;c2.2236,0.4016,4.1592-1.2963,4.1592-3.4464v-6.4635v-13.4373h-2.3687C332.5153,535.6947,329.6977,539.6944,324.4666,543.3221z" style="fill: rgb(181, 83, 39);"/>
		</g>
		<g>
			<path class="st35" d="M329.1237,555.7032h-8.6532c-3.4189,0-6.1906-2.7716-6.1906-6.1906l0,0&#10;&#9;&#9;&#9;&#9;c0-3.4189,2.7716-6.1906,6.1906-6.1906h8.6532V555.7032z" style="fill: rgb(252, 186, 129);"/>
			<path class="st43" d="M323.2384,546.2426c-2.0002,0-3.6218,1.6215-3.6218,3.6218s1.6216,3.6218,3.6218,3.6218h3.1962v-7.2436&#10;&#9;&#9;&#9;&#9;H323.2384z" style="fill: rgb(216, 139, 85);"/>
		</g>
		<path class="st44" d="M344.2281,572.5469v3.4549c0,4.0693,3.2988,7.3681,7.3681,7.3681h1.9943&#10;&#9;&#9;&#9;c5.0229,0,9.0947-4.0719,9.0947-9.0947V561.37c0-0.1526-0.028-0.2974-0.0449-0.4454&#10;&#9;&#9;&#9;C361.4128,565.5923,357.6124,569.8756,344.2281,572.5469z" style="fill: rgb(163, 73, 36);"/>
		<path class="st35" d="M354.5809,569.1409h-2.461c-2.2475,0-4.0694-1.822-4.0694-4.0695v-0.1957&#10;&#9;&#9;&#9;c0-2.2475,1.822-4.0695,4.0694-4.0695h2.461c2.2475,0,4.0694,1.822,4.0694,4.0695v0.1957&#10;&#9;&#9;&#9;C358.6503,567.319,356.8284,569.1409,354.5809,569.1409z" style="fill: rgb(252, 186, 129);"/>
	</g>
	<path class="st39" d="M316.1736,594.818l-23.4773-17.4336l5.4209-7.3001c0.5487-0.739,1.5926-0.8932,2.3316-0.3445l15.3696,11.4131&#10;&#9;&#9;c3.7388,2.7763,4.519,8.0578,1.7427,11.7966L316.1736,594.818z" style="fill: rgb(0, 143, 193);"/>
	<path class="st41" d="M301.7052,577.8239c-1.8754-0.4246-3.7585-0.6181-5.6322-0.6195&#10;&#9;&#9;c-7.6704-0.9789-15.6738,1.7494-21.1573,7.9995l-1.9538,2.2157c-16.4662,18.64-28.2363,35.1469-29.7086,78.0148&#10;&#9;&#9;c-0.4562,13.2814,9.9401,24.4182,23.2215,24.8744c0.282,0.0092,0.5605,0.0138,0.8408,0.0138&#10;&#9;&#9;c12.906,0,23.586-10.237,24.0325-23.2353c0.1532-4.4576,0.4161-8.3746,0.7906-11.8636&#10;&#9;&#9;c14.2697-1.202,27.5364-14.0499,31.6025-32.0089C328.5467,601.9895,318.6809,581.6673,301.7052,577.8239z" style="fill: rgb(116, 192, 235);"/>
	<path class="st35" d="M361.7285,636.3918c-35.2984,0-65.0972-22.0645-76.7549-32.0372l15.3305-17.9216&#10;&#9;&#9;c10.1729,8.7017,37.0092,28.6717,66.4856,26.1598c16.6254-1.415,31.7133-10.147,44.8437-25.9511l18.1404,15.0715&#10;&#9;&#9;c-17.3149,20.8409-37.8326,32.4086-60.9832,34.3793C366.4155,636.2953,364.0598,636.3918,361.7285,636.3918z" style="fill: rgb(252, 186, 129);"/>
	<path class="st45" d="M310.1115,581.4043c4.697,17.4575,6.3316,53.1608-22.7344,63.0601&#10;&#9;&#9;c-3.8891,2.2876-12.4513,12.6674,4.2408,17.0608c0.14-2.2422,0.311-4.3475,0.5207-6.3015&#10;&#9;&#9;c14.2697-1.202,27.5365-14.0499,31.6025-32.0089C327.6841,605.7996,321.7455,589.0001,310.1115,581.4043z" style="fill: rgb(104, 185, 221);"/>
	<path class="st39" d="M349.5468,637.6082c-0.7356,0-1.4798-0.0576-2.2291-0.1771c-28.979-4.6352-52.4002-21.66-63.7815-31.3967&#10;&#9;&#9;c-5.8767-5.0267-6.5662-13.8666-1.5388-19.7426c5.0274-5.8803,13.8673-6.5684,19.744-1.5388&#10;&#9;&#9;c7.3608,6.2963,26.9681,21.339,49.9999,25.0226c7.6365,1.2221,12.8373,8.4023,11.6159,16.0388&#10;&#9;&#9;C362.2553,632.7023,356.3059,637.6082,349.5468,637.6082z" style="fill: rgb(0, 143, 193);"/>
	<path class="st35" d="M440.0626,606.9993c-2.7576,9.2823-14.0872,13.4683-23.3695,10.7108&#10;&#9;&#9;c-9.2823-2.7576-14.5717-12.5178-11.8141-21.8001c2.7576-9.2823,12.5178-14.5717,21.8001-11.8141&#10;&#9;&#9;C435.9613,586.8535,442.8201,597.717,440.0626,606.9993z" style="fill: rgb(252, 186, 129);"/>
	<path class="st35" d="M413.6746,602.3292c-0.6089,0-1.2272-0.0748-1.844-0.2346c-3.9413-1.0148-6.3136-5.0339-5.298-8.9752&#10;&#9;&#9;l4.651-18.0526c1.0156-3.9427,5.0296-6.3121,8.9759-5.2988c3.9413,1.0148,6.3136,5.0339,5.298,8.9752l-4.651,18.0526&#10;&#9;&#9;C419.95,600.121,416.9559,602.3292,413.6746,602.3292z" style="fill: rgb(252, 186, 129);"/>
	<path class="st35" d="M456.2316,607.8683c-0.4203,0-0.8471-0.0403-1.2754-0.1238l-29.9809-5.84&#10;&#9;&#9;c-3.5959-0.701-5.9429-4.1832-5.2426-7.779c0.7003-3.5944,4.1803-5.9437,7.779-5.2426l29.9809,5.84&#10;&#9;&#9;c3.5958,0.701,5.9429,4.1832,5.2426,7.779C462.1184,605.6688,459.3416,607.8683,456.2316,607.8683z" style="fill: rgb(252, 186, 129);"/>
	<path class="st35" d="M440.6765,615.3536c-0.8371,0-1.6878-0.1583-2.5097-0.4952l-17.4106-7.124&#10;&#9;&#9;c-3.3907-1.3876-5.0145-5.2613-3.6275-8.6513c1.3869-3.3914,5.2621-5.0152,8.6513-3.6275l17.4106,7.124&#10;&#9;&#9;c3.3907,1.3876,5.0145,5.2613,3.6275,8.6513C445.7672,613.799,443.2892,615.3536,440.6765,615.3536z" style="fill: rgb(252, 186, 129);"/>
	<path class="st35" d="M430.6936,622.3539c-2.0067,0-3.9888-0.9069-5.2937-2.6285l-8.9284-11.7923&#10;&#9;&#9;c-2.2111-2.9207-1.636-7.0823,1.2848-9.2933c2.92-2.2111,7.0801-1.6339,9.2926,1.284l8.9284,11.7923&#10;&#9;&#9;c2.211,2.9207,1.636,7.0823-1.2848,9.2933C433.4949,621.9163,432.0885,622.3539,430.6936,622.3539z" style="fill: rgb(252, 186, 129);"/>
	<path class="st46" d="M370.3093,563.3392c-1.2228,0-2.4601-0.3383-3.567-1.0465c-3.0863-1.9735-3.9881-6.0746-2.0153-9.1609&#10;&#9;&#9;l7.3558-11.5044c1.9743-3.0862,6.0746-3.9902,9.1624-2.0153c3.0862,1.9735,3.9881,6.0746,2.0153,9.1609l-7.3558,11.5044&#10;&#9;&#9;C374.6385,562.2567,372.4966,563.3392,370.3093,563.3392z" style="fill: rgb(239, 171, 120);"/>
	<path class="st47" d="M243.2795,664.8192c-0.0076,0.2078-0.019,0.4062-0.0262,0.6152&#10;&#9;&#9;c-0.4562,13.2814,9.9401,24.4182,23.2215,24.8744c0.2821,0.0092,0.5606,0.0138,0.8409,0.0138&#10;&#9;&#9;c12.906,0,23.586-10.237,24.0324-23.2353c0.0268-0.7792,0.0612-1.5213,0.0947-2.2681H243.2795z" style="fill: rgb(0, 123, 193);"/>
	<path class="st47" d="M324.2169,741.5823l-19.8736-5.5593l12.8431-45.9009h-49.8459v-20.6365h50.2086&#10;&#9;&#9;c6.3496,0,12.2198,2.8804,16.105,7.9028c3.8859,5.0224,5.1994,11.4266,3.6052,17.5733l-0.0511,0.1885L324.2169,741.5823z" style="fill: rgb(0, 123, 193);"/>
	<path class="st48" d="M342.6806,729.0405c-3.8699,0-7.3879,1.47-10.0579,3.8661h-5.5892l3.9801-14.3127l-22.2581-5.2773&#10;&#9;&#9;l-4.6579,19.59l-2.2258,9.3748v5.5424h19.4836c0.0374-1.6935,1.4158-3.0565,3.1183-3.0565c1.7025,0,3.081,1.363,3.1184,3.0565&#10;&#9;&#9;h0.0069v0.0687h30.1634v-3.7704C357.7623,735.7927,351.01,729.0405,342.6806,729.0405z" style="fill: rgb(170, 112, 73);"/>
	<path class="st49" d="M301.8717,747.8238h19.4836c0.0374-1.6935,1.4158-3.0565,3.1183-3.0565c1.7025,0,3.081,1.363,3.1184,3.0565&#10;&#9;&#9;h0.0069v0.0687h30.1634v-3.7704c0-0.3029-0.0276-0.5988-0.0453-0.8973h-55.8453V747.8238z" style="fill: rgb(135, 68, 16);"/>
	<path class="st48" d="M226.519,730.946c-0.5935-0.1131-1.2151-0.1959-1.8499-0.2288v-0.0218h-6.1387l3.4943-6.1295l12.1888,5.9674&#10;&#9;&#9;l11.0111-20.8429l-27.933-14.7699l-10.1333,18.0974c1.513,0.5391,2.6025,1.9698,2.6025,3.668c0,2.1584-1.7497,3.9082-3.9082,3.9082&#10;&#9;&#9;c-0.9298,0-1.7724-0.3383-2.4433-0.8806l-9.2536,16.5168c-2.9207,5.2133,0.8611,11.6407,6.8368,11.6194l7.7694-0.0187h15.9073&#10;&#9;&#9;v-0.0074h12.2861v-4.1273C236.9552,737.3876,232.4741,732.14,226.519,730.946z" style="fill: rgb(170, 112, 73);"/>
	<path class="st49" d="M200.7585,737.7079l21.3614-40.2343l-4.8283-2.553l-10.1333,18.0974c1.513,0.5391,2.6025,1.9698,2.6025,3.668&#10;&#9;&#9;c0,2.1584-1.7497,3.9082-3.9082,3.9082c-0.9298,0-1.7724-0.3383-2.4433-0.8806l-9.2536,16.5168&#10;&#9;&#9;c-2.9207,5.2133,0.8611,11.6407,6.8368,11.6194l7.7694-0.0187h15.9073v-0.0074h12.2861v-4.1273&#10;&#9;&#9;c0-0.1589-0.0152-0.3141-0.0209-0.4717h-32.8587C201.2435,743.2248,199.4304,740.2094,200.7585,737.7079z" style="fill: rgb(135, 68, 16);"/>
	<path class="st49" d="M331.415,723.9673c-0.1022,0-0.2058-0.0101-0.3102-0.0331l-5.1591-1.1055&#10;&#9;&#9;c-0.796-0.1699-1.3035-0.9543-1.1329-1.7504c0.1706-0.7946,0.9558-1.3041,1.7504-1.1314l5.1591,1.1055&#10;&#9;&#9;c0.796,0.1699,1.3035,0.9543,1.1329,1.7504C332.707,723.4937,332.0952,723.9673,331.415,723.9673z" style="fill: rgb(135, 68, 16);"/>
	<path class="st49" d="M330.4736,728.3578c-0.1022,0-0.2059-0.0101-0.3102-0.0331l-5.1591-1.1055&#10;&#9;&#9;c-0.796-0.1699-1.3034-0.9543-1.1329-1.7504c0.1706-0.7946,0.9551-1.3041,1.7504-1.1314l5.1591,1.1055&#10;&#9;&#9;c0.7961,0.1699,1.3035,0.9543,1.1329,1.7504C331.7656,727.8842,331.1538,728.3578,330.4736,728.3578z" style="fill: rgb(135, 68, 16);"/>
	<path class="st49" d="M224.6677,727.805c-0.2382,0-0.4801-0.0576-0.7046-0.1799c-0.7147-0.3901-0.9781-1.2855-0.588-1.9995&#10;&#9;&#9;l2.3953-4.3904c0.3908-0.714,1.2847-0.9774,2.0002-0.5887c0.7147,0.3901,0.9781,1.2855,0.588,1.9995l-2.3953,4.3904&#10;&#9;&#9;C225.6955,727.5272,225.1895,727.805,224.6677,727.805z" style="fill: rgb(135, 68, 16);"/>
	<path class="st49" d="M229.7347,730.5688c-0.2382,0-0.4801-0.0576-0.7046-0.1799c-0.7147-0.3901-0.9781-1.2855-0.588-1.9995&#10;&#9;&#9;l2.3953-4.3904c0.3908-0.7139,1.2855-0.9788,2.0002-0.5887c0.7147,0.3901,0.9781,1.2855,0.588,1.9995l-2.3953,4.3904&#10;&#9;&#9;C230.7625,730.291,230.2565,730.5688,229.7347,730.5688z" style="fill: rgb(135, 68, 16);"/>
	<path class="st33" d="M271.3863,681.2275c-0.5405,0-1.0602-0.298-1.3186-0.8133c-0.3656-0.7269-0.072-1.6122,0.6557-1.9778&#10;&#9;&#9;l6.4402-3.2331c0.6593-0.3311,1.1494-0.8983,1.3819-1.5993c0.2318-0.6996,0.1771-1.4481-0.1533-2.1074l-0.9666-1.9261&#10;&#9;&#9;c-0.3656-0.7269-0.072-1.6136,0.6557-1.9778c0.7291-0.3685,1.6136-0.0705,1.9786,0.6564l0.9666,1.926&#10;&#9;&#9;c0.6845,1.3618,0.7968,2.9092,0.3174,4.3573c-0.4801,1.4467-1.4949,2.6213-2.8574,3.3051l-6.4403,3.2331&#10;&#9;&#9;C271.834,681.1771,271.608,681.2275,271.3863,681.2275z" style="fill: rgb(2, 109, 156);"/>
	<path class="st45" d="M297.0537,608.7286l-2.3579-1.8963c-0.9613-0.7731-1.1138-2.1791-0.3407-3.1403l6.955-8.6479&#10;&#9;&#9;c0.7731-0.9613,2.179-1.1138,3.1403-0.3408l2.3579,1.8964c0.9613,0.7731,1.1138,2.179,0.3407,3.1403l-6.9549,8.6479&#10;&#9;&#9;C299.421,609.3492,298.015,609.5017,297.0537,608.7286z" style="fill: rgb(104, 185, 221);"/>
</g>
<g>
	<g>
		<path class="st50" d="M411.5012,675.9411h60.5595c4.525,0,7.6305,4.5551,5.9772,8.7672l-12.7786,32.5566h-74.3556l14.6203-37.2488&#10;&#9;&#9;&#9;C406.4889,677.5579,408.8604,675.9411,411.5012,675.9411z" style="fill: rgb(201, 69, 69);"/>
		<path class="st3" d="M407.0777,675.9411h60.5595c4.525,0,7.6305,4.5551,5.9772,8.7672l-12.7786,32.5566h-74.3556l14.6203-37.2488&#10;&#9;&#9;&#9;C402.0653,677.5579,404.4369,675.9411,407.0777,675.9411z" style="fill: rgb(241, 93, 93);"/>
		<path class="st51" d="M390.8057,714.3164l13.0403-33.2227c0.5256-1.3377,1.7942-2.2031,3.232-2.2031h60.5596&#10;&#9;&#9;&#9;c1.1664,0,2.2118,0.5529,2.8684,1.5162c0.6566,0.9634,0.7891,2.1384,0.3629,3.2227l-12.0438,30.687H390.8057z" style="fill: rgb(168, 47, 47);"/>
	</g>
	<g>
		<path d="M 456.0220031738281 683.6047973632812 L 453.54449462890625 687.79052734375 L 454.3315124511719 690.5706787109375 L 451.3139953613281 701.0941772460938 L 454.3742980957031 701.9716796875 L 457.3918151855469 691.4481811523438 L 459.5325012207031 689.5076293945312 L 459.6495056152344 684.64501953125 Z" class="st52" style="fill: rgb(255, 229, 199);"/>
		<g>
			<path class="st53" d="M456.1307,703.6063l-7.1725-2.0567c-0.8334-0.239-1.3154-1.1083-1.0764-1.9418l0,0&#10;&#9;&#9;&#9;&#9;c0.239-0.8334,1.1084-1.3154,1.9418-1.0764l7.1725,2.0567c0.8335,0.239,1.3154,1.1083,1.0764,1.9418l0,0&#10;&#9;&#9;&#9;&#9;C457.8335,703.3633,456.9641,703.8453,456.1307,703.6063z" style="fill: rgb(249, 159, 56);"/>
			
				<path d="M 447.359192 702.344788 H 454.412492 V 714.379488 H 447.359192 V 702.344788 Z" transform="matrix(0.9613 0.2756 -0.2756 0.9613 212.7176 -96.8402)" class="st53" style="fill: rgb(249, 159, 56);"/>
			<g>
				<path class="st54" d="M449.7422,703.6985l-2.2976,8.0127c-0.1138,0.397,0.1157,0.811,0.5127,0.9249l0,0&#10;&#9;&#9;&#9;&#9;&#9;c0.397,0.1138,0.8111-0.1157,0.9249-0.5126l2.2976-8.0128c0.1138-0.3969-0.1157-0.811-0.5127-0.9249l0,0&#10;&#9;&#9;&#9;&#9;&#9;C450.2702,703.072,449.8561,703.3015,449.7422,703.6985z" style="fill: rgb(194, 117, 20);"/>
				<path class="st54" d="M452.8895,704.601l-2.2976,8.0127c-0.1138,0.397,0.1157,0.811,0.5127,0.9249l0,0&#10;&#9;&#9;&#9;&#9;&#9;c0.397,0.1138,0.8111-0.1157,0.9249-0.5127l2.2976-8.0127c0.1138-0.397-0.1157-0.811-0.5126-0.9249h0&#10;&#9;&#9;&#9;&#9;&#9;C453.4174,703.9744,453.0033,704.204,452.8895,704.601z" style="fill: rgb(194, 117, 20);"/>
			</g>
		</g>
	</g>
	<g>
		<path class="st52" d="M417.7971,684.6043l-0.9964,3.4668c-0.5555,1.9325-2.5004,3.2487-4.4593,2.7951&#10;&#9;&#9;&#9;c-2.0891-0.4838-3.3213-2.6101-2.7365-4.6448l1.0545-3.6687c0.1402-0.4878-0.3002-0.9445-0.7928-0.822l-3.0724,0.764&#10;&#9;&#9;&#9;l-2.3745,8.2612l3.097,3.211l-3.3235,11.5628l6.8828,1.9783l3.3234-11.5628l4.3293-1.0765l2.3745-8.2612l-2.1978-2.2787&#10;&#9;&#9;&#9;C418.5531,683.9634,417.9373,684.1165,417.7971,684.6043z" style="fill: rgb(255, 229, 199);"/>
		<path class="st55" d="M410.9462,694.7094L410.9462,694.7094c0.8025,0.2307,1.2661,1.0682,1.0354,1.8707l-2.9704,10.3345&#10;&#9;&#9;&#9;l-2.9061-0.8353l2.9704-10.3345C409.3062,694.9423,410.1437,694.4788,410.9462,694.7094z" style="fill: rgb(234, 202, 170);"/>
	</g>
	<g>
		<path class="st52" d="M431.9925,691.0049l-0.6994,2.4332c-0.3898,1.3563-1.7549,2.2802-3.1298,1.9617&#10;&#9;&#9;&#9;c-1.4663-0.3395-2.3311-1.8319-1.9206-3.2599l0.7401-2.5749c0.0984-0.3424-0.2107-0.6629-0.5564-0.577l-2.1564,0.5362&#10;&#9;&#9;&#9;l-1.6665,5.7982l2.1736,2.2537l-2.3326,8.1154l4.8307,1.3885l2.3326-8.1154l3.0385-0.7556l1.6666-5.7982l-1.5426-1.5994&#10;&#9;&#9;&#9;C432.523,690.5551,432.0909,690.6625,431.9925,691.0049z" style="fill: rgb(255, 229, 199);"/>
		<path class="st55" d="M427.1841,698.0972L427.1841,698.0972c0.5632,0.1619,0.8886,0.7497,0.7267,1.3129l-2.0848,7.2533&#10;&#9;&#9;&#9;l-2.0396-0.5862l2.0848-7.2533C426.0331,698.2606,426.6208,697.9353,427.1841,698.0972z" style="fill: rgb(234, 202, 170);"/>
	</g>
	<g>
		<path class="st50" d="M462.9891,704.3813h-57.3526c-3.6136,0-6.5432,2.9295-6.5432,6.5432v30.2276&#10;&#9;&#9;&#9;c0,3.6136,2.9295,6.5432,6.5432,6.5432h57.3526c3.6136,0,6.5432-2.9295,6.5432-6.5432v-30.2276&#10;&#9;&#9;&#9;C469.5323,707.3109,466.6028,704.3813,462.9891,704.3813z" style="fill: rgb(201, 69, 69);"/>
		<path class="st3" d="M449.7185,704.3813h-61.5303c-3.6137,0-6.5432,2.9295-6.5432,6.5432v30.2276&#10;&#9;&#9;&#9;c0,3.6136,2.9295,6.5432,6.5432,6.5432h61.5303c3.6137,0,6.5432-2.9295,6.5432-6.5432v-30.2276&#10;&#9;&#9;&#9;C456.2617,707.3109,453.3322,704.3813,449.7185,704.3813z" style="fill: rgb(241, 93, 93);"/>
		<path class="st5" d="M390.6516,717.2645h56.6035c0.6564,0,1.1886-0.5322,1.1886-1.1886l0,0c0-0.6564-0.5321-1.1886-1.1886-1.1886&#10;&#9;&#9;&#9;h-56.6035c-0.6564,0-1.1886,0.5322-1.1886,1.1886l0,0C389.463,716.7324,389.9951,717.2645,390.6516,717.2645z" style="fill: rgb(211, 72, 72);"/>
		<g>
			<path class="st23" d="M397.1812,711.85v7.5493c0,0.8334,0.6756,1.509,1.5091,1.509h3.1256c0.8334,0,1.5091-0.6756,1.5091-1.509&#10;&#9;&#9;&#9;&#9;V711.85c0-0.8334-0.6756-1.5091-1.5091-1.5091h-3.1256C397.8568,710.3409,397.1812,711.0165,397.1812,711.85z" style="fill: rgb(255, 221, 119);"/>
			<path class="st23" d="M434.5817,711.85v7.5493c0,0.8334,0.6757,1.509,1.5091,1.509h3.1256c0.8334,0,1.5091-0.6756,1.5091-1.509&#10;&#9;&#9;&#9;&#9;V711.85c0-0.8334-0.6756-1.5091-1.5091-1.5091h-3.1256C435.2573,710.3409,434.5817,711.0165,434.5817,711.85z" style="fill: rgb(255, 221, 119);"/>
		</g>
	</g>
	<g>
		<path class="st56" d="M452.8176,724.7789h-5.5561c-1.607,0-3.1211-0.7056-4.1543-1.9367&#10;&#9;&#9;&#9;c-1.0339-1.2297-1.4673-2.8439-1.1894-4.4265l2.6596-15.1699c0.0814-0.4651-0.18-0.923-0.6228-1.0901&#10;&#9;&#9;&#9;c-0.4348-0.1613-0.7776,0.0259-0.905,0.1138s-0.4233,0.3427-0.4233,0.8078v1.3046h-2.949v-1.3046&#10;&#9;&#9;&#9;c0-1.2902,0.6328-2.4983,1.6934-3.2327c1.0591-0.7344,2.4148-0.9,3.6215-0.4493c1.7697,0.6667,2.8166,2.4998,2.4897,4.3602&#10;&#9;&#9;&#9;l-2.6596,15.17c-0.1267,0.7228,0.0713,1.4587,0.5429,2.0203c0.4723,0.5616,1.1635,0.8841,1.8964,0.8841h5.5561V724.7789z" style="fill: rgb(64, 191, 180);"/>
		<path d="M 453.353096 723.304382 A 0.5355 1.4745 0 0 1 452.817596 724.778882 A 0.5355 1.4745 0 0 1 452.282096 723.304382 A 0.5355 1.4745 0 0 1 452.817596 721.829882 A 0.5355 1.4745 0 0 1 453.353096 723.304382 Z" class="st57" style="fill: rgb(0, 106, 98);"/>
	</g>
</g>
</svg>